<svg data-v-fde0c5aa="" xmlns="http://www.w3.org/2000/svg" viewBox="0 0 300 300" class="iconLeft"><!----><defs data-v-fde0c5aa=""><!----></defs><rect data-v-fde0c5aa="" fill="transparent" x="0" y="0" width="300px" height="300px" class="logo-background-square"></rect><defs data-v-fde0c5aa=""><!----></defs><g data-v-fde0c5aa="" id="13a93d4e-5f7e-4525-ab25-5aaee2e05537" fill="#000000" transform="matrix(2.6270702271322515,0,0,2.6270702271322515,104.63506876229904,119.90690949594492)"><path d="M4.91 7.70C3.68 7.70 2.88 8.44 2.45 9.62C2.44 8.46 2.07 7.76 1.23 7.76C0.70 7.76 0.34 8.04 0.34 8.46C0.34 8.60 0.39 8.76 0.50 8.93C0.59 8.76 0.77 8.74 0.87 8.74C1.15 8.74 1.26 8.93 1.26 9.45L1.25 17.43C1.25 17.86 1.57 18.12 1.99 18.12C2.35 18.12 2.60 17.95 2.72 17.84C2.55 17.23 2.51 16.24 2.51 15.64L2.51 14.15C2.79 14.83 3.46 15.20 4.38 15.20C6.24 15.20 7.35 13.73 7.35 11.14C7.35 9.56 6.89 7.70 4.91 7.70ZM4.09 14.49C2.84 14.49 2.52 13.44 2.52 12.08C2.52 10.19 3.25 8.46 4.56 8.46C5.80 8.46 5.99 9.81 5.99 11.14C5.99 13.34 5.35 14.49 4.09 14.49ZM15.37 13.92C15.26 14.10 15.06 14.18 14.92 14.18C14.60 14.18 14.43 13.94 14.43 13.44L14.43 10.72C14.43 8.64 13.54 7.70 11.58 7.70C9.90 7.70 8.83 8.29 8.83 9.39C8.83 10.04 9.25 10.64 9.95 10.64C10.22 10.64 10.51 10.56 10.70 10.35C10.26 10.18 10.11 9.72 10.11 9.35C10.11 8.50 10.81 8.23 11.47 8.23C12.68 8.23 13.13 9.04 13.13 10.65L13.13 11.00C12.46 10.98 11.63 11.05 10.85 11.26C9.55 11.62 8.51 12.36 8.51 13.55C8.51 14.55 9.18 15.18 10.28 15.18C11.56 15.18 12.63 14.34 13.20 13.09L13.20 13.31C13.20 14.62 13.65 15.16 14.49 15.16C15.08 15.16 15.53 14.83 15.53 14.39C15.53 14.25 15.48 14.08 15.37 13.92ZM10.88 14.31C10.16 14.34 9.90 13.82 9.90 13.27C9.90 12.57 10.36 12.07 11.12 11.77C11.66 11.54 12.53 11.45 13.17 11.48C13.15 12.96 11.90 14.27 10.88 14.31ZM18.79 15.20C21.04 15.20 21.76 14.13 21.76 13.16C21.76 11.87 20.48 11.38 19.38 10.85C18.45 10.40 17.60 10.04 17.60 9.16C17.60 8.48 18.24 8.23 18.96 8.23C19.80 8.23 20.33 8.55 20.41 9.13C20.48 9.31 20.48 9.56 20.45 9.76C20.59 9.80 20.72 9.80 20.87 9.77C21.32 9.73 21.48 9.42 21.48 9.09C21.48 8.19 20.52 7.69 19.00 7.69C17.63 7.69 16.44 8.22 16.44 9.55C16.44 10.98 17.57 11.47 18.66 11.98C19.61 12.45 20.57 12.73 20.57 13.59C20.57 14.29 19.87 14.64 18.91 14.64C17.84 14.64 17.21 14.11 17.15 13.33C17.12 13.10 17.12 12.92 17.18 12.71C16.41 12.59 16.16 13.05 16.16 13.52C16.16 14.46 16.94 15.20 18.79 15.20ZM25.37 15.20C27.62 15.20 28.34 14.13 28.34 13.16C28.34 11.87 27.06 11.38 25.96 10.85C25.03 10.40 24.18 10.04 24.18 9.16C24.18 8.48 24.82 8.23 25.54 8.23C26.38 8.23 26.91 8.55 26.99 9.13C27.06 9.31 27.06 9.56 27.03 9.76C27.17 9.80 27.30 9.80 27.45 9.77C27.90 9.73 28.06 9.42 28.06 9.09C28.06 8.19 27.10 7.69 25.58 7.69C24.21 7.69 23.02 8.22 23.02 9.55C23.02 10.98 24.15 11.47 25.24 11.98C26.19 12.45 27.15 12.73 27.15 13.59C27.15 14.29 26.45 14.64 25.49 14.64C24.42 14.64 23.79 14.11 23.73 13.33C23.70 13.10 23.70 12.92 23.76 12.71C22.99 12.59 22.74 13.05 22.74 13.52C22.74 14.46 23.52 15.20 25.37 15.20ZM32.63 15.20C34.92 15.20 35.84 13.48 35.84 11.16C35.84 8.72 34.90 7.70 33.39 7.70C32.24 7.70 31.40 8.43 31.07 9.39L31.08 7.31C31.08 6.80 31.11 5.75 31.28 5.08C31.15 4.97 30.87 4.79 30.49 4.79C30.10 4.79 29.81 5.04 29.81 5.49L29.81 14.27C30.46 14.95 31.64 15.20 32.63 15.20ZM32.56 14.62C31.98 14.62 31.33 14.39 31.07 14.11L31.07 11.72C31.07 10.23 31.64 8.43 33.15 8.43C34.03 8.43 34.50 9.25 34.50 11.14C34.50 12.81 34.20 14.57 32.56 14.62ZM40.28 15.20C42.34 15.20 43.53 13.82 43.53 11.47C43.53 9.10 42.34 7.70 40.28 7.70C38.22 7.70 37.02 9.10 37.02 11.47C37.02 13.82 38.22 15.20 40.28 15.20ZM40.28 14.67C39.03 14.67 38.37 13.54 38.37 11.47C38.37 9.37 39.03 8.23 40.28 8.23C41.51 8.23 42.17 9.37 42.17 11.47C42.17 13.54 41.51 14.67 40.28 14.67ZM47.98 15.20C50.04 15.20 51.23 13.82 51.23 11.47C51.23 9.10 50.04 7.70 47.98 7.70C45.92 7.70 44.72 9.10 44.72 11.47C44.72 13.82 45.92 15.20 47.98 15.20ZM47.98 14.67C46.73 14.67 46.07 13.54 46.07 11.47C46.07 9.37 46.73 8.23 47.98 8.23C49.21 8.23 49.87 9.37 49.87 11.47C49.87 13.54 49.21 14.67 47.98 14.67ZM58.95 13.94C58.83 14.08 58.66 14.11 58.56 14.11C58.31 14.11 58.20 13.96 58.00 13.61L57.26 12.29C57.08 12.00 56.91 11.77 56.67 11.69C57.67 11.23 58.63 10.46 58.63 9.30C58.63 8.36 58.06 7.70 56.88 7.70C55.54 7.70 54.59 8.51 54.17 9.73L54.18 7.50C54.22 6.62 54.19 6.08 54.39 5.08C54.28 4.97 54.04 4.79 53.66 4.79C53.24 4.79 52.92 5.04 52.93 5.49L52.93 14.43C52.93 14.87 53.07 15.19 53.65 15.19C54.04 15.19 54.25 15.04 54.40 14.91C54.21 14.38 54.19 14.10 54.19 12.46C54.66 12.35 55.22 12.19 55.80 11.98L56.94 14.31C57.18 14.88 57.61 15.19 58.11 15.19C58.65 15.19 59.14 14.85 59.14 14.38C59.14 14.24 59.08 14.08 58.95 13.94ZM54.19 11.91C54.19 9.91 55.10 8.41 56.43 8.41C56.95 8.41 57.34 8.67 57.34 9.37C57.34 10.74 55.71 11.48 54.19 11.91Z"></path></g><defs data-v-fde0c5aa=""><linearGradient data-v-fde0c5aa="" gradientTransform="rotate(25)" id="fb33f4a0-4bd6-4744-9689-55a2326e5efc" x1="0%" y1="0%" x2="100%" y2="0%"><stop data-v-fde0c5aa="" offset="0%" stop-color="#01648B" stop-opacity="1"></stop><stop data-v-fde0c5aa="" offset="100%" stop-color="#5BD0A4" stop-opacity="1"></stop></linearGradient></defs><g data-v-fde0c5aa="" id="c4805f70-d392-42c0-b149-67495a93d291" stroke="none" fill="url(#fb33f4a0-4bd6-4744-9689-55a2326e5efc)" transform="matrix(1.6415085202787232,0,0,1.6415085202787232,40,123.73586367554043)"><path d="M9.382 8.675h13.943v13.943L32 31.293V0H.707zM22.618 23.325H8.675V9.382L0 .707V32h31.293z"></path></g><!----></svg>